<svg width="58" height="64" viewBox="0 0 58 64" fill="none" xmlns="http://www.w3.org/2000/svg">
<path d="M17 50H41M2 38V26C2 14.687 2 9.029 5.516 5.516C9.032 2.003 14.687 2 26 2H32C43.313 2 48.971 2 52.484 5.516C55.997 9.032 56 14.687 56 26V38C56 49.313 56 54.971 52.484 58.484C48.968 61.997 43.313 62 32 62H26C14.687 62 9.029 62 5.516 58.484C2.003 54.968 2 49.313 2 38Z" stroke="#FCE8EF" stroke-width="4" stroke-linecap="round" stroke-linejoin="round"/>
<path d="M14.1499 16.931H43.8709M29.0449 16.931V37.949M29.0449 37.949H27.4459M29.0449 37.949H30.6229M17.0479 19.895C14.8699 22.133 11.2639 25.991 12.8419 29.204C14.2429 32.057 16.2349 32.108 17.0449 32.108C17.8549 32.108 19.9639 32.057 21.3649 29.204C22.9429 25.991 19.2259 22.133 17.0479 19.895ZM40.9429 19.895C38.7679 22.133 35.1619 25.991 36.7369 29.204C38.1379 32.057 40.1329 32.108 40.9429 32.108C41.7529 32.108 43.8619 32.057 45.2629 29.204C46.8409 25.991 43.1209 22.133 40.9429 19.895Z" stroke="#FCE8EF" stroke-width="4" stroke-linecap="round" stroke-linejoin="round"/>
</svg>
