<svg width="76" height="76" viewBox="0 0 76 76" fill="none" xmlns="http://www.w3.org/2000/svg">
<mask id="path-1-inside-1_48_2044" fill="white">
<path d="M38 0L46.3497 23.5644C47.3569 26.4069 49.5931 28.6431 52.4356 29.6503L76 38L52.4356 46.3497C49.5931 47.3569 47.3569 49.5931 46.3497 52.4356L38 76L29.6503 52.4356C28.6431 49.5931 26.4069 47.3569 23.5644 46.3497L0 38L23.5644 29.6503C26.4069 28.6431 28.6431 26.4069 29.6503 23.5644L38 0Z"/>
</mask>
<path d="M38 0L39.8852 -0.667974L38 -5.98826L36.1148 -0.667974L38 0ZM76 38L76.668 39.8852L81.9883 38L76.668 36.1148L76 38ZM38 76L36.1148 76.668L38 81.9883L39.8852 76.668L38 76ZM0 38L-0.667974 36.1148L-5.98826 38L-0.667974 39.8852L0 38ZM23.5644 29.6503L22.8965 27.7652L23.5644 29.6503ZM29.6503 52.4356L27.7652 53.1035L29.6503 52.4356ZM23.5644 46.3497L24.2324 44.4645L23.5644 46.3497ZM52.4356 46.3497L51.7676 44.4645L52.4356 46.3497ZM46.3497 52.4356L44.4645 51.7676L46.3497 52.4356ZM46.3497 23.5644L44.4645 24.2324L46.3497 23.5644ZM38 0L36.1148 0.667974L44.4645 24.2324L46.3497 23.5644L48.2348 22.8965L39.8852 -0.667974L38 0ZM52.4356 29.6503L51.7676 31.5355L75.332 39.8852L76 38L76.668 36.1148L53.1035 27.7652L52.4356 29.6503ZM76 38L75.332 36.1148L51.7676 44.4645L52.4356 46.3497L53.1035 48.2348L76.668 39.8852L76 38ZM46.3497 52.4356L44.4645 51.7676L36.1148 75.332L38 76L39.8852 76.668L48.2348 53.1035L46.3497 52.4356ZM38 76L39.8852 75.332L31.5355 51.7676L29.6503 52.4356L27.7652 53.1035L36.1148 76.668L38 76ZM23.5644 46.3497L24.2324 44.4645L0.667974 36.1148L0 38L-0.667974 39.8852L22.8965 48.2348L23.5644 46.3497ZM0 38L0.667974 39.8852L24.2324 31.5355L23.5644 29.6503L22.8965 27.7652L-0.667974 36.1148L0 38ZM29.6503 23.5644L31.5355 24.2324L39.8852 0.667974L38 0L36.1148 -0.667974L27.7652 22.8965L29.6503 23.5644ZM23.5644 29.6503L24.2324 31.5355C27.6434 30.3268 30.3268 27.6434 31.5355 24.2324L29.6503 23.5644L27.7652 22.8965C26.9594 25.1705 25.1705 26.9594 22.8965 27.7652L23.5644 29.6503ZM29.6503 52.4356L31.5355 51.7676C30.3268 48.3566 27.6434 45.6732 24.2324 44.4645L23.5644 46.3497L22.8965 48.2348C25.1705 49.0406 26.9594 50.8295 27.7652 53.1035L29.6503 52.4356ZM52.4356 46.3497L51.7676 44.4645C48.3566 45.6732 45.6732 48.3566 44.4645 51.7676L46.3497 52.4356L48.2348 53.1035C49.0406 50.8295 50.8295 49.0406 53.1035 48.2348L52.4356 46.3497ZM46.3497 23.5644L44.4645 24.2324C45.6732 27.6434 48.3566 30.3268 51.7676 31.5355L52.4356 29.6503L53.1035 27.7652C50.8295 26.9594 49.0406 25.1705 48.2348 22.8965L46.3497 23.5644Z" fill="#FCE8EF" mask="url(#path-1-inside-1_48_2044)"/>
</svg>
