<svg width="24" height="24" viewBox="0 0 24 24" fill="none" xmlns="http://www.w3.org/2000/svg">
<path d="M20.4491 20.3657H16.8931V14.8516C16.8931 13.5367 16.8694 11.8441 15.0437 11.8441C13.1915 11.8441 12.9081 13.2767 12.9081 14.7559V20.3653H9.35203V9.02616H12.7658V10.5758H12.8136C13.1553 9.99739 13.649 9.52157 14.2421 9.19903C14.8352 8.87647 15.5056 8.71925 16.1819 8.74411C19.7861 8.74411 20.4506 11.0915 20.4506 14.1452L20.4491 20.3657ZM5.33962 7.47616C4.93148 7.47624 4.53247 7.35647 4.19307 7.13201C3.85366 6.90755 3.58913 6.58848 3.43286 6.21514C3.27662 5.8418 3.23566 5.43098 3.31522 5.03459C3.39477 4.63822 3.59125 4.27411 3.87981 3.9883C4.16836 3.70249 4.53602 3.50781 4.9363 3.42891C5.3366 3.34999 5.75152 3.39038 6.12863 3.54496C6.50573 3.69955 6.82807 3.96139 7.05489 4.29736C7.2817 4.63334 7.40281 5.02838 7.40288 5.43251C7.40293 5.70083 7.3496 5.96654 7.24593 6.21447C7.14227 6.46239 6.99032 6.68766 6.79873 6.87744C6.60714 7.06721 6.37966 7.21776 6.12931 7.32049C5.87896 7.42321 5.61062 7.47612 5.33962 7.47616ZM7.11765 20.3657H3.55789V9.02616H7.11765V20.3657ZM22.222 0.119783H1.77099C1.30681 0.114596 0.859518 0.292092 0.527441 0.613265C0.195363 0.934438 0.00566506 1.37301 0 1.83261V22.1662C0.00547118 22.6261 0.195057 23.0648 0.527123 23.3863C0.85919 23.7079 1.30658 23.8858 1.77099 23.8808H22.222C22.6873 23.8867 23.1359 23.7093 23.4693 23.3878C23.8028 23.0663 23.9936 22.627 24 22.1662V1.83114C23.9934 1.37063 23.8023 0.931561 23.469 0.610396C23.1356 0.28923 22.6871 0.113709 22.222 0.119783Z" fill="white"/>
</svg>
