<svg width="14" height="24" viewBox="0 0 14 24" fill="none" xmlns="http://www.w3.org/2000/svg">
<path opacity="0.8" d="M13.0303 1.27442H8.94124C8.93192 1.27435 8.92261 1.27477 8.91334 1.27566C4.78492 1.28868 4.24575 4.17313 4.24357 6.69418C4.23786 6.71804 4.23493 6.74251 4.2349 6.76705V8.53684H1.40948C1.3273 8.53684 1.24848 8.56951 1.19037 8.62765C1.13226 8.6858 1.09961 8.76466 1.09961 8.84689V13.2115C1.09961 13.2938 1.13226 13.3726 1.19037 13.4308C1.24848 13.4889 1.3273 13.5216 1.40948 13.5216H4.2349V23.0995C4.2349 23.1817 4.26754 23.2606 4.32565 23.3188C4.38378 23.3768 4.46259 23.4095 4.54477 23.4095H8.66824C8.75043 23.4095 8.82924 23.3768 8.88735 23.3188C8.94546 23.2606 8.97811 23.1817 8.97811 23.0995V13.5219H13.03C13.1122 13.5219 13.191 13.4892 13.2491 13.4311C13.3072 13.3729 13.3399 13.2941 13.3399 13.2118V8.8472C13.3399 8.76497 13.3072 8.6861 13.2491 8.62796C13.191 8.56981 13.1122 8.53715 13.03 8.53715H8.66824V6.19096H13.03C13.1122 6.19096 13.191 6.1583 13.2491 6.10015C13.3072 6.04201 13.3399 5.96314 13.3399 5.88091V1.58447C13.3399 1.54378 13.3319 1.50346 13.3164 1.46584C13.3009 1.42823 13.2781 1.39405 13.2493 1.36525C13.2206 1.33646 13.1864 1.31361 13.1488 1.29803C13.1113 1.28244 13.071 1.27442 13.0303 1.27442Z" fill="white"/>
</svg>
