<svg width="72" height="60" viewBox="0 0 72 60" fill="none" xmlns="http://www.w3.org/2000/svg">
<path fill-rule="evenodd" clip-rule="evenodd" d="M2.57849 14.45C1.80642 14.8132 1.15362 15.3885 0.696382 16.1089C0.239142 16.8292 -0.00366211 17.6648 -0.00366211 18.518C-0.00366211 19.3712 0.239142 20.2068 0.696382 20.9272C1.15362 21.6475 1.80642 22.2229 2.57849 22.586L9.01349 25.6235V43.2635C9.01349 46.6025 10.098 50.3285 13.2615 52.6235C17.2485 55.5035 24.5115 59.0135 36.0315 59.0135C47.5515 59.0135 54.7965 55.481 58.8015 52.6235C61.965 50.3375 63.0495 46.6385 63.0495 43.2635V25.6235L67.5495 23.495V43.25C67.5495 43.8468 67.7865 44.4191 68.2085 44.841C68.6305 45.263 69.2028 45.5 69.7995 45.5C70.3962 45.5 70.9685 45.263 71.3905 44.841C71.8124 44.4191 72.0495 43.8468 72.0495 43.25V18.5C72.0497 17.6478 71.8079 16.813 71.3522 16.0929C70.8965 15.3727 70.2457 14.7968 69.4755 14.432L43.7355 2.28201C41.3297 1.14436 38.7017 0.554291 36.0405 0.554291C33.3793 0.554291 30.7512 1.14436 28.3455 2.28201L2.60549 14.432L2.57849 14.45ZM13.5135 43.25V27.725L28.3185 34.745C30.7242 35.8827 33.3523 36.4727 36.0135 36.4727C38.6747 36.4727 41.3027 35.8827 43.7085 34.745L58.5135 27.725V43.25C58.5135 45.752 57.7035 47.795 56.1285 48.92C52.8705 51.2735 46.5435 54.5 36.0135 54.5C25.4835 54.5 19.1385 51.296 15.8985 48.92C14.328 47.786 13.5135 45.7295 13.5135 43.25ZM30.2535 6.35001C32.0539 5.49716 34.0213 5.05476 36.0135 5.05476C38.0057 5.05476 39.9731 5.49716 41.7735 6.35001L67.5135 18.5L41.7735 30.65C39.9731 31.5029 38.0057 31.9453 36.0135 31.9453C34.0213 31.9453 32.0539 31.5029 30.2535 30.65L4.51349 18.5L30.2535 6.35001Z" fill="#FCE8EF"/>
</svg>
