<svg width="46" height="62" viewBox="0 0 46 62" fill="none" xmlns="http://www.w3.org/2000/svg">
<path d="M43.0001 0.75H31.7501C31.1534 0.75 30.5811 0.987053 30.1591 1.40901C29.7372 1.83097 29.5001 2.40326 29.5001 3C29.5001 3.59674 29.7372 4.16903 30.1591 4.59099C30.5811 5.01295 31.1534 5.25 31.7501 5.25H37.5692L30.4957 12.3234C28.4188 10.3878 25.9134 8.971 23.1843 8.18862C20.4551 7.40624 17.5796 7.28051 14.7926 7.82171C12.0056 8.36291 9.38615 9.55568 7.14817 11.3026C4.91019 13.0495 3.11718 15.3011 1.91557 17.8733C0.713959 20.4456 0.137838 23.2656 0.234263 26.103C0.330687 28.9404 1.09692 31.7148 2.47038 34.1995C3.84384 36.6843 5.78557 38.8089 8.13698 40.3998C10.4884 41.9908 13.1828 43.003 16.0001 43.3537V48H9.2501C8.65337 48 8.08107 48.2371 7.65912 48.659C7.23716 49.081 7.00011 49.6533 7.00011 50.25C7.00011 50.8467 7.23716 51.419 7.65912 51.841C8.08107 52.2629 8.65337 52.5 9.2501 52.5H16.0001V59.25C16.0001 59.8467 16.2372 60.419 16.6591 60.841C17.0811 61.2629 17.6534 61.5 18.2501 61.5C18.8468 61.5 19.4191 61.2629 19.8411 60.841C20.2631 60.419 20.5001 59.8467 20.5001 59.25V52.5H27.2501C27.8468 52.5 28.4191 52.2629 28.8411 51.841C29.2631 51.419 29.5001 50.8467 29.5001 50.25C29.5001 49.6533 29.2631 49.081 28.8411 48.659C28.4191 48.2371 27.8468 48 27.2501 48H20.5001V43.3537C23.516 42.977 26.3872 41.8418 28.8453 40.0542C31.3033 38.2666 33.2681 35.8849 34.5558 33.1319C35.8436 30.3788 36.4123 27.3442 36.2089 24.3117C36.0055 21.2791 35.0365 18.3477 33.3926 15.7913L40.7501 8.43094V14.25C40.7501 14.8467 40.9872 15.419 41.4091 15.841C41.8311 16.2629 42.4034 16.5 43.0001 16.5C43.5968 16.5 44.1691 16.2629 44.5911 15.841C45.0131 15.419 45.2501 14.8467 45.2501 14.25V3C45.2501 2.40326 45.0131 1.83097 44.5911 1.40901C44.1691 0.987053 43.5968 0.75 43.0001 0.75ZM18.2501 39C15.5801 39 12.97 38.2082 10.7499 36.7248C8.52984 35.2414 6.79952 33.133 5.77773 30.6662C4.75595 28.1994 4.4886 25.485 5.0095 22.8663C5.53041 20.2475 6.81615 17.8421 8.70416 15.9541C10.5922 14.066 12.9976 12.7803 15.6164 12.2594C18.2351 11.7385 20.9495 12.0058 23.4163 13.0276C25.8831 14.0494 27.9915 15.7797 29.4749 17.9998C30.9583 20.2199 31.7501 22.83 31.7501 25.5C31.7464 29.0793 30.3229 32.5109 27.7919 35.0418C25.261 37.5728 21.8294 38.9963 18.2501 39Z" fill="#FCE8EF"/>
</svg>
