<?xml version="1.0" encoding="UTF-8"?>
<svg id="Layer_2" data-name="Layer 2" xmlns="http://www.w3.org/2000/svg" viewBox="0 0 238.94 200">
  <defs>
    <style>
      .cls-1 {
        fill: #fff;
      }
    </style>
  </defs>
  <g id="Layer_1-2" data-name="Layer 1">
    <g>
      <path class="cls-1" d="M238.94,50.47c.01,1.51-.75,2.92-2.09,3.85-1.98,1.38-17.33,7.43-19.63,7.98-.65.15-1.3.24-1.91.24-1.6,0-2.93-.55-3.73-1.55-.57-.7-1.15-1.98-.7-4.04.63-2.89,6.49-4.73,10.37-5.94.41-.13.79-.25,1.13-.36l-.1-.14L119.66,9.55,16.53,50.34l.12.17,102.63,40.97,65.51-25.8h.14c2.29.15,4.09,1.51,4.58,3.48.47,1.91-.42,3.81-2.33,4.97l-.04.03-67.89,26.86L3.49,55.03c-2.14-.73-3.49-2.46-3.49-4.52s1.35-3.79,3.52-4.52L119.69,0l117.1,46.67.06.04c1.32.9,2.09,2.26,2.09,3.76Z"/>
      <path class="cls-1" d="M207.66,120.36c9.4,3.51,8.47,15.26,5.83,23.21.99,15.23,4.87,31.45,5.58,46.55.21,4.49-1.02,5.62-4.94,7.5-5.46,2.62-11.93,3.14-17.67,1.22-1.49-.5-5.83-2.65-6.83-3.7-1.41-1.48-1.25-2.62-1.2-4.54.46-15.06,4.78-31.79,5.58-47.04-2.8-8.22-3.44-19.51,5.93-23.45l-.04-54.25-82.82-16.08c-3.24-2.99-.84-7.72,3.52-6.89,25.38,5.33,51.09,9.22,76.46,14.55,2.76.58,9.07.99,10.16,3.73l.44,59.18ZM206.56,139.05c1.2-2.97,2.05-11.08-2.2-11.83-5.26-.93-5.11,9-3.16,11.92l5.36-.08ZM206.14,146.78c-1.52.74-3.26.73-4.78,0l-4.72,43.26c3.73,3,10,2.75,14.06.33l.28-1.2-4.84-42.39Z"/>
      <path class="cls-1" d="M188.85,132.53l-.03.09c-.77,2.53-12.91,10.04-13.03,10.11-16.97,10.27-36.45,15.7-56.34,15.7s-39.14-5.36-56.02-15.51c-.12-.07-12.55-7.75-13.33-10.3l-.03-.09-.23-47.78c.04-1.95,1.44-3.72,3.26-4.11.4-.09.81-.13,1.22-.13,2.31,0,4.1,1.49,4.45,3.7v.05s.28,44.48.28,44.48c12.82,10.2,29.73,17.38,46.44,19.72,4.48.63,9.07.95,13.65.95,19.01,0,38.04-5.48,53.57-15.43l.51-.32c4.34-2.75,6.66-4.57,6.89-5.41v-43.51c.23-2.83,2.42-4.27,4.46-4.27,1.68,0,3.19.9,4.05,2.41l.08.15.15,49.49Z"/>
    </g>
  </g>
</svg>