<?xml version="1.0" encoding="UTF-8"?>
<svg id="Layer_2" data-name="Layer 2" xmlns="http://www.w3.org/2000/svg" viewBox="0 0 200.08 200">
  <defs>
    <style>
      .cls-1 {
        fill: #fff;
      }
    </style>
  </defs>
  <g id="Layer_1-2" data-name="Layer 1">
    <path class="cls-1" d="M52.12,200l-.13-.08c-1.28-.79-2.03-2.03-2.21-3.69-.45-3.99,2.63-9.72,5.03-12.07,4.59-4.5,9.86-4.88,14.86-4.88.74,0,1.49,0,2.24.02.76,0,1.52.02,2.29.02,1.7,0,3.03-.05,4.27-.16l11-10.99V47.72h-31.58c-1.21,0-6.13,1.37-7.62,1.9-.09.03-.2.07-.33.11-1.62.54-2.06.86-2.17,1.02l32.73,71.48v.1c.59,14.12-9.26,24.17-24.52,25-5.82.32-12.75.5-18.55.5-7.94,0-13.9-.32-17.72-.96C9.76,145.22,1.84,137.09,0,126.66v-.04s0-4.44,0-4.44L32.43,51.64l.17-1-7.44-3.85,3.11-6.74,7.74,3.76c.08-.15.18-.37.27-.56.58-1.25,1.55-3.34,3.76-3.46.07,0,.15,0,.22,0,2.63,0,3.75,2.5,4.23,3.57.02.04.03.07.05.11,8.36-3.43,17.31-3.9,24.98-3.9,2.52,0,5.09.05,7.57.11,2.47.05,5.03.11,7.52.11,1.77,0,3.36-.03,4.85-.08v-5.59h-6.61v-7.65h5.68c-.23-.88-.49-1.76-.73-2.63-1.47-5.14-2.99-10.45-.52-15.83,1.72-3.75,5.1-6.36,10.33-7.97l.07-.02h4.82l.07.02c3.32,1,6.74,2.45,9.24,6.23,3.91,5.91,2.3,11.54.6,17.49-.25.89-.51,1.8-.76,2.71h5.68v7.65h-6.61v5.59c1.49.06,3.09.08,4.86.08,2.5,0,5.05-.05,7.52-.11,2.48-.05,5.05-.11,7.57-.11,7.66,0,16.58.47,24.91,3.87,1.36-3.17,3.18-3.66,4.17-3.66,1.76,0,3.45,1.47,4.58,3.96l7.59-3.68,3.11,6.74-7.44,3.85.17,1,32.25,70.5v.1c.7,13.92-9.27,24.23-24.22,25.09-1.96.11-9.05.48-17.67.48-6.78,0-15.9-.24-20.89-1.4-6.32-1.47-12.43-6.52-15.56-12.87-2.45-4.96-2.71-10.09-.74-14.45l31.47-68.34c-.09-.14-.52-.46-2.18-1.01-.13-.04-.24-.08-.32-.11-1.58-.56-6.21-1.9-7.62-1.9h-31.58v120.45l11,10.99c1.24.11,2.57.16,4.27.16.77,0,1.53,0,2.29-.02.75,0,1.5-.02,2.24-.02,5,0,10.27.38,14.86,4.88,2.4,2.35,5.47,8.08,5.03,12.06-.18,1.66-.93,2.9-2.21,3.7l-.13.08H52.12ZM141.8,192.57c-1.09-2.87-4.26-5.21-7.67-5.57-3.77.21-7.82.31-12.36.31-6.54,0-13.28-.22-19.8-.42-6.51-.21-13.23-.42-19.75-.42-5.74,0-10.76.17-15.35.51-4.09.31-7.19,2.38-8.44,5.59h83.37ZM110.52,179.34c-.49-.52-1.02-1.14-1.57-1.79-1.2-1.4-2.56-2.99-3.44-3.49-.49-.28-1.54-.42-3.11-.42-1.12,0-2.35.07-3.53.13-1.07.06-2.08.11-2.92.11-.31,0-.58,0-.82-.02l-5.45,5.48h20.83ZM102.7,166.12V47.72h-5.19v118.39h5.19ZM127.92,127.09c.9,6.78,7.86,11.76,14.03,12.21,2.68.19,5.61.29,8.96.29,4.03,0,8.19-.14,12.22-.27,4.01-.13,8.15-.27,12.14-.27,1.49,0,2.86.02,4.18.06,6.14-1.24,11.02-5.91,12.59-12.01h-64.12ZM24.95,139.04c3.99,0,8.13.14,12.14.27,4.03.13,8.19.27,12.22.27,3.35,0,6.28-.09,8.96-.29,6.17-.45,13.13-5.42,14.03-12.21H8.18c1.57,6.1,6.45,10.77,12.59,12.01,1.32-.04,2.69-.06,4.18-.06ZM190.33,119.43l-30-65.31-1.4.73-29.61,64.58h61.01ZM70.9,119.43l-29.84-65c-.13-.27-.33-.32-.87-.39-.07,0-.14-.02-.21-.03L9.89,119.43h61.01ZM102.7,39.68v-5.57h-5.19v5.57h5.19ZM100,7.93c-.6,0-1.22.06-1.84.19-3.25.67-4.81,4.2-4.44,7.22.17,1.39,2.22,9.93,2.64,10.74.04.08.14.27.18.31.04.02.25.06.35.08.22.04,1.3.08,2.94.08h0c2.05,0,3.53-.06,3.76-.12l.07-.02s.08-.11.11-.18c.02-.05.05-.11.08-.16.41-.78,2.48-9.44,2.64-10.74.26-2.11-.25-3.94-1.46-5.31-1.2-1.36-2.99-2.1-5.04-2.1Z"/>
  </g>
</svg>