<?xml version="1.0" encoding="UTF-8"?>
<svg id="Layer_2" data-name="Layer 2" xmlns="http://www.w3.org/2000/svg" viewBox="0 0 200 200">
  <defs>
    <style>
      .cls-1 {
        fill: #fff;
      }
    </style>
  </defs>
  <g id="Layer_1-2" data-name="Layer 1">
    <path class="cls-1" d="M176.16,200H23.83c-8.64-1.54-16.29-6.26-20.51-14.05-1.62-2.98-2.36-6.16-3.31-9.38V23.45C2.31,10.87,11.93,1.32,24.81.02l150-.02c13.46,1.12,24.07,11.74,25.19,25.19l-.02,150c-1,12.28-11.45,23.48-23.82,24.81ZM53.03,37.62c-22,2.52-18.68,36.38,4.15,33.83,21.47-2.4,18.33-36.4-4.15-33.83ZM106.63,88.68v-6.05c0-1.57-1.62-3.52-3.3-3.73-6.19-.76-13.94.58-20.3.04-1.63.22-2.37,1.59-2.86,3l-.1,76.87c.3,2.19,1.93,3.52,4.09,3.72,4.22.39,14.27.48,18.39,0,2.3-.28,3.51-1.42,3.72-3.7,1.23-13.51-3.61-44,4.66-53.93,5.61-6.74,16.84-6.46,21.42,1.26,5.68,9.6,1.65,40.05,2.79,52.67.21,2.28,1.42,3.43,3.72,3.7,4.18.5,14.49.41,18.77,0,2.69-.25,4.16-1.34,4.48-4.12-1.56-30.03,10.82-89.87-39.46-80.09-6.8,1.32-11.8,5.04-16,10.36ZM67.06,161.21c.56-.61.91-1.94.92-2.79l-.1-76.88c-.41-1.26-1.52-2.39-2.87-2.6-5.88-.93-14.08.58-20.21.06-1.32.3-3.03,2.2-3.02,3.62l.1,76.48c.57,1.95,1.95,3.17,4,3.42,3.78.45,14.17.43,17.98,0,.93-.11,2.58-.62,3.2-1.29Z"/>
  </g>
</svg>