<?xml version="1.0" encoding="UTF-8"?>
<svg id="Layer_2" data-name="Layer 2" xmlns="http://www.w3.org/2000/svg" viewBox="0 0 200 85">
  <defs>
    <style>
      .cls-1 {
        fill: #fff;
      }
    </style>
  </defs>
  <g id="Capa_2" data-name="Capa 2">
    <path class="cls-1" d="M198.44,53.09c-1.43,3.36-3.63,6.28-6.7,8.94-5.69,4.91-12.34,7.78-17.5,9.73-10.7,4.05-22.41,6.91-37.97,9.28-15.32,2.34-30.94,3.64-46.44,3.92-2.03.03-4.06.05-6.08.05-19.13,0-34.74-1.69-49.13-5.34-7.86-1.99-14.51-4.75-20.34-8.44-4.75-3.02-8.11-6.07-10.56-9.62-4.38-6.35-4.89-12.92-1.57-20.11,1.64-3.57,4.14-6.91,7.84-10.53,7.5-7.31,16.78-13.13,29.18-18.29,12.55-5.21,26.73-8.8,43.39-10.96,8.87-1.14,18.08-1.73,27.41-1.73s19.59.61,29.79,1.83c19.13,2.26,34.43,5.9,48.15,11.43,1.6.66,3.22,1.46,4.78,2.25l.99.5c1.1.54.98.91.84,1.33-.04.11-.05.16-.3.16-.29,0-.65-.1-1.05-.3-10.21-4.96-21.36-7.47-31.2-9.67-11.17-2.52-23.09-4.13-37.53-5.11-4.92-.33-9.87-.5-14.73-.5-17.56,0-34.96,2.19-51.74,6.53-12.78,3.29-23.84,7.87-33.83,13.99-6.45,3.94-11.26,7.87-15.18,12.37-1.89,2.16-3.37,4.22-4.54,6.3-4.19,7.48-3.44,14.94,2.11,21.02,2.48,2.73,5.54,5.28,9.07,7.61,7.83,5.15,16.6,7.53,23.37,9.02,13.87,3.04,28.84,4.41,48.55,4.41h1.01c27.19-.67,50.41-3.54,71.04-8.79,6.79-1.73,14.72-4.04,22.13-8.05,3.56-1.93,6.55-3.94,9.14-6.14,2.03-1.73,3.93-4.14,5.37-6.81,3.46-6.44,2.41-13.13-2.8-17.87-2.65-2.41-5.81-4.59-9.41-6.49-8.48-4.49-17.93-8-29.73-11.08-8.81-2.29-17.6-3.12-25.79-3.68-.22-.01-.47-.02-.7-.03-.66-.02-1.34-.06-1.74-.25-.15-.07-.38-.28-.53-.48.16-.26.47-.62.76-.81.02,0,.15-.06.59-.06.19,0,.38.01.57.01.22.01.46.02.68.02h1.05c12.43-.01,25.21,2.48,39.05,7.57,5.98,2.2,12.07,4.89,18.61,8.21,2.83,1.44,5.75,3.62,8.44,6.32,4.89,4.88,6.03,11.57,3.15,18.35Z"/>
  </g>
</svg>