<svg width="25" height="25" viewBox="0 0 25 25" fill="none" xmlns="http://www.w3.org/2000/svg">
<path fill-rule="evenodd" clip-rule="evenodd" d="M12.379 1.39062C11.1192 1.39063 9.911 1.89107 9.0202 2.78187C8.1294 3.67267 7.62896 4.88086 7.62896 6.14062C7.62896 7.4004 8.1294 8.60858 9.0202 9.49938C9.911 10.3902 11.1192 10.8906 12.379 10.8906C13.6387 10.8906 14.8469 10.3902 15.7377 9.49938C16.6285 8.60858 17.129 7.4004 17.129 6.14062C17.129 4.88086 16.6285 3.67267 15.7377 2.78187C14.8469 1.89107 13.6387 1.39063 12.379 1.39062ZM9.12896 6.14062C9.12896 5.27868 9.47137 4.45202 10.0809 3.84254C10.6904 3.23304 11.517 2.89064 12.379 2.89062C13.2409 2.89064 14.0676 3.23304 14.6771 3.84254C15.2865 4.45202 15.629 5.27868 15.629 6.14062C15.629 7.00258 15.2865 7.82923 14.6771 8.43872C14.0676 9.04821 13.2409 9.39062 12.379 9.39062C11.517 9.39062 10.6904 9.04821 10.0809 8.43872C9.47137 7.82923 9.12896 7.00258 9.12896 6.14062ZM12.379 12.3906C10.066 12.3906 7.93396 12.9166 6.35496 13.8046C4.79896 14.6806 3.62896 16.0066 3.62896 17.6406V17.7426C3.62796 18.9046 3.62696 20.3626 4.90596 21.4046C5.53496 21.9166 6.41596 22.2816 7.60596 22.5216C8.79796 22.7636 10.353 22.8906 12.379 22.8906C14.405 22.8906 15.959 22.7636 17.153 22.5216C18.343 22.2816 19.223 21.9166 19.853 21.4046C21.132 20.3626 21.13 18.9046 21.129 17.7426V17.6406C21.129 16.0066 19.959 14.6806 18.404 13.8046C16.824 12.9166 14.693 12.3906 12.379 12.3906ZM5.12896 17.6406C5.12896 16.7896 5.75096 15.8656 7.08996 15.1126C8.40596 14.3726 10.274 13.8906 12.38 13.8906C14.484 13.8906 16.352 14.3726 17.668 15.1126C19.008 15.8656 19.629 16.7896 19.629 17.6406C19.629 18.9486 19.589 19.6846 18.905 20.2406C18.535 20.5426 17.915 20.8376 16.855 21.0516C15.798 21.2656 14.353 21.3906 12.379 21.3906C10.405 21.3906 8.95896 21.2656 7.90296 21.0516C6.84296 20.8376 6.22296 20.5426 5.85296 20.2416C5.16896 19.6846 5.12896 18.9486 5.12896 17.6406Z" fill="#1C2437"/>
</svg>
