<?xml version="1.0" encoding="UTF-8"?>
<svg id="Layer_2" data-name="Layer 2" xmlns="http://www.w3.org/2000/svg" viewBox="0 0 147.97 200">
  <defs>
    <style>
      .cls-1 {
        fill: #fff;
      }
    </style>
  </defs>
  <g id="Layer_1-2" data-name="Layer 1">
    <path class="cls-1" d="M147.86.34l-.23-.23-37.63-.11c-.97,1.35-1.01,6.38-.24,8.06.16.19.44.46.69.68h22.37l-30.79,30.96-2.53-1.93c-11.31-8.62-24.44-13.17-37.95-13.17-17.02,0-33.49,7.2-45.17,19.74C4.65,56.93-1.1,73.73.17,91.66c.83,11.63,5.76,23.39,13.88,33.14,8.04,9.64,18.69,16.73,29.99,19.94,1.25.35,2.56.62,3.95.91,2.18.45,4.44.91,6.6,1.75l2.32.9v26.81h-17.85c-.27.17-.57.36-.77.5-.84,1.43-.93,6.59-.17,8.21.24.2.67.49.99.66h17.8v14.93c.19.17.42.35.6.45.43.06,1.59.15,3.74.15,1.66,0,3.06-.06,3.67-.11.26-.11.68-.43.95-.69v-14.71h17.55c.36-.2.92-.66,1.2-.99.19-1.51.17-6.17-.04-7.54-.19-.26-.58-.64-.87-.85h-17.84v-28.22l3.24-.35c21.5-2.32,39.59-16.04,48.39-36.7,8.77-20.62,6.1-43.15-7.15-60.28l-.56-.72-.63-3.71,30.09-29.98v22.38c.22.25.48.51.67.68.51.21,1.91.55,3.85.55,2.3,0,3.7-.48,4.22-.8l-.11-37.61ZM106.86,111.68c-9.21,16.52-26.15,26.39-45.33,26.39h0c-21.06,0-39.36-11.75-47.76-30.65-6.86-15.44-5.78-33.52,2.91-48.34,8.44-14.4,22.56-23.52,38.74-25.02,1.78-.17,3.57-.25,5.34-.25,19.15,0,36.3,9.73,45.88,26.03,9.35,15.93,9.44,35.3.22,51.84Z"/>
  </g>
</svg>