<?xml version="1.0" encoding="UTF-8"?>
<svg id="Layer_2" data-name="Layer 2" xmlns="http://www.w3.org/2000/svg" viewBox="0 0 740.61 603.44">
  <defs>
    <style>
      .cls-1 {
        opacity: .9;
      }

      .cls-1, .cls-2, .cls-3 {
        fill: #fff;
      }

      .cls-2 {
        opacity: .4;
      }

      .cls-3 {
        opacity: .7;
      }
    </style>
  </defs>
  <g id="Layer_1-2" data-name="Layer 1">
    <g>
      <path class="cls-1" d="M332.82,343.68c-2.39.54-1.62-.42-2.23-1.31-.94-1.36-1.99-3.45-2.94-5.02-22.14-36.16-40.48-74.79-63.23-110.63l-130.49-24.92c-.54-2.39.41-1.62,1.3-2.23,2.17-1.48,5.06-3.13,7.38-4.57,34.98-21.6,71.9-40.25,106.72-62.17L273.87,0l68.02,117.33c36.23,7.57,72.81,13.51,109.09,20.83,6.03,1.22,12.35,2.21,18.3,3.69,1.31.33,2.54-.06,3.46,1.52l-115.41,67.45-24.51,132.86Z"/>
      <polygon class="cls-3" points="740.61 505.52 637.66 517.01 578.71 603.44 566.21 499.54 480.75 439.6 584.39 427.29 642.65 340.69 655.16 445.59 740.61 505.52"/>
      <polygon class="cls-2" points="102.94 469.57 74.94 508.08 83.95 554.48 46.28 526.7 0 536.49 28 497.98 19 451.58 56.71 479.4 102.94 469.57"/>
    </g>
  </g>
</svg>