<?xml version="1.0" encoding="UTF-8"?>
<svg id="Layer_2" data-name="Layer 2" xmlns="http://www.w3.org/2000/svg" viewBox="0 0 175.79 200">
  <defs>
    <style>
      .cls-1 {
        fill: #fff;
      }
    </style>
  </defs>
  <g id="Layer_1-2" data-name="Layer 1">
    <path class="cls-1" d="M124.99,0c.36,26.21,20.22,47.61,46.3,50.01,1.49.14,3.41-.49,4.49.59v31.65c0,1.08-2.39.21-2.93.2-4.68-.15-8.53-.42-13.16-1.3-12.75-2.42-24.26-7.94-34.7-15.5l.38,74.43c-1.34,30.9-25.04,56.1-55.72,59.54C30.41,204-3.91,171.05.36,131.48c3.78-35.09,37.09-60.12,71.89-54.51v32.62l-.81.43c-26.01-8.18-48.45,20.78-33.5,44.04,15.11,23.51,51.59,14.31,54.25-13.19,1.03-46.18-1.42-92.58-.03-138.74.02-.74-.04-1.48.41-2.13h32.43Z"/>
  </g>
</svg>