<?xml version="1.0" encoding="UTF-8"?>
<svg id="Layer_2" data-name="Layer 2" xmlns="http://www.w3.org/2000/svg" viewBox="0 0 496 447.48">
  <defs>
    <style>
      .cls-1 {
        fill: #fff;
      }
    </style>
  </defs>
  <g id="Layer_1-2" data-name="Layer 1">
    <g>
      <path class="cls-1" d="M488.51,216.93c-5.73-.69-17.62-1.11-31.05-1.11s-26.17.46-31.85,1.21c-9.27,1.21-17.94,8.39-22.09,18.27l-.49,1.16-1.25.06c-4.07.22-8.42.33-13.28.33-7.3,0-14.82-.25-22.08-.48-7.24-.23-14.72-.47-21.95-.47-6.25,0-11.72.18-16.72.54-17.82,1.32-35.83,12.35-53.26,23.02-9.82,6.02-19.1,11.7-28.28,15.69l-.31.13-.33.03c-4.56.36-9.53.53-15.2.53-6.37,0-12.91-.22-19.23-.43-6.26-.21-12.74-.43-18.99-.43-5.51,0-10.33.17-14.73.52-10.42.82-19.72,5.59-26.18,13.45-6.83,8.29-9.87,19.04-8.58,30.24l.37,3.16-97.56-33.74c-3.35-.75-6.68-1.13-9.88-1.13-16.44,0-29.89,10.17-34.27,25.91-3.5,12.6-.8,29.93,17.24,40.87,28.72,11.82,57.74,25.27,85.81,38.28,33.17,15.38,67.48,31.28,101.51,44.58,17.82,6.97,34.33,10.36,50.47,10.36,14.19,0,28.02-2.58,42.3-7.88,14.65-5.44,28.52-14.42,41.93-23.1,10.16-6.58,20.67-13.38,31.39-18.54,6.62-3.19,20.82-7.99,27.99-8.26h.27c3.88,0,5.12,3.07,5.94,5.1.37.92.71,1.78,1.21,2.4,8.18,10.4,23.54,11.74,36.01,11.74,6.08,0,12.38-.36,18.47-.71,5.96-.35,11.59-.67,16.91-.67,4.33,0,7.95.22,11.08.68,2.36-.09,3.71-1.6,5.69-4.04.15-.19.31-.38.46-.57v-181.26c-2.23-3.56-3.59-4.98-7.49-5.44ZM402.37,374.01l-1.86.13c-24.97,1.73-46.18,15.18-66.68,28.18-19.29,12.24-39.24,24.89-62.66,28.29-5.39.79-10.5,1.17-15.59,1.17-14.18,0-27.65-2.92-45.02-9.77-30.95-12.2-61.75-26.44-91.53-40.22-28.68-13.27-58.34-26.99-88.06-38.84-12.28-4.17-16.35-14.78-14.92-23.46,1.31-8,7.86-16.08,19.52-16.08,1.42,0,2.9.12,4.4.37l.16.02,133.85,45.59,107.17.04c3.6-1.58,5.74-4.39,5.74-7.55s-2.14-5.98-5.75-7.56l-102.02-.16h-.09c-14.06-1.29-20.49-11.55-20.64-21.15-.14-9.34,5.98-20.16,19.75-21.82,4.64-.57,9.83-.84,15.89-.84,6.49,0,13.25.31,19.8.61,6.49.3,13.2.61,19.59.61,4.51,0,8.46-.15,12.08-.46,10.57-.92,23.74-9.25,37.69-18.07,15.21-9.62,30.94-19.57,45.23-21.02h.1s73.85-.01,73.85-.01v122ZM480.47,392.69h-53.25c-2.95,0-7.11-5.48-7.15-5.54-1.76-2.34-2.5-4.33-2.19-5.94l-.02-135.35c-.52-3.1,1.32-6.71,3.26-9.09,2.21-2.72,4.79-4.28,7.08-4.28h52.27v160.2Z"/>
      <path class="cls-1" d="M488.51,216.93c-5.73-.69-17.62-1.11-31.05-1.11s-26.17.46-31.85,1.21c-9.27,1.21-17.94,8.39-22.09,18.27l-.49,1.16-1.25.06c-4.07.22-8.42.33-13.28.33-7.3,0-14.82-.25-22.08-.48-7.24-.23-14.72-.47-21.95-.47-6.25,0-11.72.18-16.72.54-17.82,1.32-35.83,12.35-53.26,23.02-9.82,6.02-19.1,11.7-28.28,15.69l-.31.13-.33.03c-4.56.36-9.53.53-15.2.53-6.37,0-12.91-.22-19.23-.43-6.26-.21-12.74-.43-18.99-.43-5.51,0-10.33.17-14.73.52-10.42.82-19.72,5.59-26.18,13.45-6.83,8.29-9.87,19.04-8.58,30.24l.37,3.16-97.56-33.74c-3.35-.75-6.68-1.13-9.88-1.13-16.44,0-29.89,10.17-34.27,25.91-3.5,12.6-.8,29.93,17.24,40.87,28.72,11.82,57.74,25.27,85.81,38.28,33.17,15.38,67.48,31.28,101.51,44.58,17.82,6.97,34.33,10.36,50.47,10.36,14.19,0,28.02-2.58,42.3-7.88,14.65-5.44,28.52-14.42,41.93-23.1,10.16-6.58,20.67-13.38,31.39-18.54,6.62-3.19,20.82-7.99,27.99-8.26h.27c3.88,0,5.12,3.07,5.94,5.1.37.92.71,1.78,1.21,2.4,8.18,10.4,23.54,11.74,36.01,11.74,6.08,0,12.38-.36,18.47-.71,5.96-.35,11.59-.67,16.91-.67,4.33,0,7.95.22,11.08.68,2.36-.09,3.71-1.6,5.69-4.04.15-.19.31-.38.46-.57v-181.26c-2.23-3.56-3.59-4.98-7.49-5.44ZM402.37,374.01l-1.86.13c-24.97,1.73-46.18,15.18-66.68,28.18-19.29,12.24-39.24,24.89-62.66,28.29-5.39.79-10.5,1.17-15.59,1.17-14.18,0-27.65-2.92-45.02-9.77-30.95-12.2-61.75-26.44-91.53-40.22-28.68-13.27-58.34-26.99-88.06-38.84-12.28-4.17-16.35-14.78-14.92-23.46,1.31-8,7.86-16.08,19.52-16.08,1.42,0,2.9.12,4.4.37l.16.02,133.85,45.59,107.17.04c3.6-1.58,5.74-4.39,5.74-7.55s-2.14-5.98-5.75-7.56l-102.02-.16h-.09c-14.06-1.29-20.49-11.55-20.64-21.15-.14-9.34,5.98-20.16,19.75-21.82,4.64-.57,9.83-.84,15.89-.84,6.49,0,13.25.31,19.8.61,6.49.3,13.2.61,19.59.61,4.51,0,8.46-.15,12.08-.46,10.57-.92,23.74-9.25,37.69-18.07,15.21-9.62,30.94-19.57,45.23-21.02h.1s73.85-.01,73.85-.01v122ZM480.47,392.69h-53.25c-2.95,0-7.11-5.48-7.15-5.54-1.76-2.34-2.5-4.33-2.19-5.94l-.02-135.35c-.52-3.1,1.32-6.71,3.26-9.09,2.21-2.72,4.79-4.28,7.08-4.28h52.27v160.2Z"/>
      <path class="cls-1" d="M339.38,58.12c-.48,1.63-1.47,2.82-3.02,3.62-1.76.91-3.35,1.38-4.71,1.38-2.43,0-4.25-1.57-5.76-3.9-1.51-2.33-2.71-5.43-3.9-8.46-.99-2.55-1.92-4.96-3.05-6.95-10.07-17.75-26.45-27.93-44.95-27.93-21.68,0-42.48,14.04-52.98,35.78-1.03,2.14-1.83,4.54-2.6,6.87-2.48,7.51-4.4,12.07-9.98,12.07-.95,0-1.99-.13-3.11-.39-3.08-.71-6.16-8.84-8.21-14.23-1-2.66-1.88-4.96-2.75-6.61-11.23-21.39-29.35-33.66-49.72-33.66-14.49,0-28.69,6.4-38.94,17.57-11.86,12.91-17.48,30.85-15.8,50.53,2.6,30.69,33.99,60.17,50.86,76.01,12.65,11.89,26.25,23.2,39.4,34.15,8.37,6.96,17.02,14.16,25.31,21.41l.7.61,3.73-.57.44-.4c10.12-9.04,20.7-17.94,30.92-26.55,20.52-17.28,41.75-35.15,60.52-55.11,1.18-1.26,2.32-2.76,3.53-4.36,2.96-3.9,6.31-8.32,10.16-8.32,1.56,0,3.28.71,5.1,2.13,1.63,1.26,2.49,2.71,2.62,4.44.48,5.91-7.13,14.03-11.68,18.89-.71.76-1.37,1.46-1.93,2.08-16.92,18.69-37.59,35.49-57.58,51.74-13.61,11.06-27.68,22.5-40.35,34.37-1.29.83-2.57,1.24-3.92,1.24-2,0-4.17-.87-6.83-2.73-11.12-7.76-25.16-20.55-37.55-31.83-4.13-3.76-8.03-7.32-11.59-10.47-1.6-1.43-3.25-2.88-4.92-4.36-26.85-23.68-63.61-56.12-71.08-91.7-5.17-24.61.78-50.41,15.9-69.04C104.98,9.03,123.73,0,144.46,0c4.78,0,9.7.49,14.61,1.44,18.12,3.52,33.9,15.92,48.27,37.91l1.92,2.93,1.55-3.14C222.66,15.11,246.39.18,272.73.18c24.62,0,46.8,13.04,59.33,34.87,2.31,4.02,9.33,16.26,7.32,23.07Z"/>
      <path class="cls-1" d="M339.38,58.12c-.48,1.63-1.47,2.82-3.02,3.62-1.76.91-3.35,1.38-4.71,1.38-2.43,0-4.25-1.57-5.76-3.9-1.51-2.33-2.71-5.43-3.9-8.46-.99-2.55-1.92-4.96-3.05-6.95-10.07-17.75-26.45-27.93-44.95-27.93-21.68,0-42.48,14.04-52.98,35.78-1.03,2.14-1.83,4.54-2.6,6.87-2.48,7.51-4.4,12.07-9.98,12.07-.95,0-1.99-.13-3.11-.39-3.08-.71-6.16-8.84-8.21-14.23-1-2.66-1.88-4.96-2.75-6.61-11.23-21.39-29.35-33.66-49.72-33.66-14.49,0-28.69,6.4-38.94,17.57-11.86,12.91-17.48,30.85-15.8,50.53,2.6,30.69,33.99,60.17,50.86,76.01,12.65,11.89,26.25,23.2,39.4,34.15,8.37,6.96,17.02,14.16,25.31,21.41l.7.61,3.73-.57.44-.4c10.12-9.04,20.7-17.94,30.92-26.55,20.52-17.28,41.75-35.15,60.52-55.11,1.18-1.26,2.32-2.76,3.53-4.36,2.96-3.9,6.31-8.32,10.16-8.32,1.56,0,3.28.71,5.1,2.13,1.63,1.26,2.49,2.71,2.62,4.44.48,5.91-7.13,14.03-11.68,18.89-.71.76-1.37,1.46-1.93,2.08-16.92,18.69-37.59,35.49-57.58,51.74-13.61,11.06-27.68,22.5-40.35,34.37-1.29.83-2.57,1.24-3.92,1.24-2,0-4.17-.87-6.83-2.73-11.12-7.76-25.16-20.55-37.55-31.83-4.13-3.76-8.03-7.32-11.59-10.47-1.6-1.43-3.25-2.88-4.92-4.36-26.85-23.68-63.61-56.12-71.08-91.7-5.17-24.61.78-50.41,15.9-69.04C104.98,9.03,123.73,0,144.46,0c4.78,0,9.7.49,14.61,1.44,18.12,3.52,33.9,15.92,48.27,37.91l1.92,2.93,1.55-3.14C222.66,15.11,246.39.18,272.73.18c24.62,0,46.8,13.04,59.33,34.87,2.31,4.02,9.33,16.26,7.32,23.07Z"/>
      <path class="cls-1" d="M340.77,94.95c-.3,3.19-2.47,6.91-7.59,6.91-.92,0-1.91-.12-2.94-.35-3.88-.89-5.24-4.89-4.86-8.23.37-3.31,2.54-7.17,7.43-7.17.65,0,1.33.07,2.03.2,4.56.88,6.27,5.09,5.93,8.64Z"/>
      <path class="cls-1" d="M340.77,94.95c-.3,3.19-2.47,6.91-7.59,6.91-.92,0-1.91-.12-2.94-.35-3.88-.89-5.24-4.89-4.86-8.23.37-3.31,2.54-7.17,7.43-7.17.65,0,1.33.07,2.03.2,4.56.88,6.27,5.09,5.93,8.64Z"/>
      <path class="cls-1" d="M456.95,264.82c-.3,3.19-2.48,6.91-7.6,6.91-.92,0-1.9-.12-2.93-.35-3.88-.89-5.25-4.89-4.87-8.23.37-3.31,2.55-7.17,7.44-7.17.64,0,1.32.07,2.02.2,4.56.88,6.28,5.09,5.94,8.64Z"/>
      <path class="cls-1" d="M456.95,264.82c-.3,3.19-2.48,6.91-7.6,6.91-.92,0-1.9-.12-2.93-.35-3.88-.89-5.25-4.89-4.87-8.23.37-3.31,2.55-7.17,7.44-7.17.64,0,1.32.07,2.02.2,4.56.88,6.28,5.09,5.94,8.64Z"/>
    </g>
  </g>
</svg>