<?xml version="1.0" encoding="UTF-8"?>
<svg id="Layer_2" data-name="Layer 2" xmlns="http://www.w3.org/2000/svg" viewBox="0 0 285.83 200">
  <defs>
    <style>
      .cls-1 {
        fill: #fff;
      }
    </style>
  </defs>
  <g id="Layer_1-2" data-name="Layer 1">
    <path class="cls-1" d="M127.45.13c29-.34,59.36-.1,88.28,1.61,37.31,2.2,60.67,1.63,66.72,44.31,4.57,32.27,4.44,74.95,0,107.29-5.94,43.27-28.01,42.71-66.12,44.9-44.61,2.57-90.74,2.07-135.37.01-34.03-1.57-69.3,3.2-76.71-38.47C-1.24,128.88-.87,86.21,2.3,54.88,6.05,17.84,13.95,6.54,51.88,2.93,76.28.61,102.85.42,127.45.13ZM114.51,142.45l73.61-42.45-73.61-42.45v84.9Z"/>
  </g>
</svg>